<svg xmlns="http://www.w3.org/2000/svg" viewBox="0 0 64 64">
  <defs>
    <linearGradient id="blue" x1="16" y1="8" x2="50" y2="57" gradientUnits="userSpaceOnUse">
      <stop stop-color="#2AD7FF"/><stop offset=".42" stop-color="#087DFF"/><stop offset="1" stop-color="#0345A7"/>
    </linearGradient>
    <linearGradient id="gold" x1="27" y1="53" x2="53" y2="11" gradientUnits="userSpaceOnUse">
      <stop stop-color="#FF8A00"/><stop offset=".5" stop-color="#FFB51B"/><stop offset="1" stop-color="#FFE27A"/>
    </linearGradient>
    <radialGradient id="ring">
      <stop offset=".72" stop-color="#07101D" stop-opacity="0"/>
      <stop offset=".88" stop-color="#159DFF" stop-opacity=".75"/>
      <stop offset=".95" stop-color="#FFAE19" stop-opacity=".65"/>
      <stop offset="1" stop-color="#07101D" stop-opacity="0"/>
    </radialGradient>
    <filter id="glow" x="-35%" y="-35%" width="170%" height="170%">
      <feGaussianBlur stdDeviation="1.1" result="b"/>
      <feMerge><feMergeNode in="b"/><feMergeNode in="SourceGraphic"/></feMerge>
    </filter>
  </defs>
  <rect width="64" height="64" rx="16" fill="#050A12"/>
  <circle cx="32" cy="32" r="27" fill="url(#ring)" opacity=".7"/>
  <circle cx="32" cy="32" r="25" fill="none" stroke="#159DFF" stroke-opacity=".2"/>
  <path d="M44 11C37 6 26 7 19 11 12 16 11 24 16 29c3 4 8 5 15 6 7 1 10 3 9 7-2 5-8 7-14 6-6-1-11-3-14-7l-6 8c5 7 13 10 22 10 13 0 23-6 26-16 3-9-4-15-15-18-7-1-10-3-9-6 1-4 5-6 10-5 4 0 8 2 11 5Z" fill="url(#blue)" filter="url(#glow)"/>
  <path d="M22 16 47 54" fill="none" stroke="#9C4B00" stroke-width="7" stroke-linecap="round"/>
  <path d="M44 15 21 54" fill="none" stroke="url(#gold)" stroke-width="7" stroke-linecap="round" filter="url(#glow)"/>
  <path d="M22 16 47 54M44 15 21 54" fill="none" stroke="#FFE99A" stroke-width="1.3" stroke-linecap="round" opacity=".55"/>
</svg>
